<svg
  version="1.1"
  xmlns="http://www.w3.org/2000/svg"
  xlink="http://www.w3.org/1999/xlink"
  viewBox="0 0 100 100"
>
  <g light-content="false" non-strokable="false" fill="#8b432b">
<path
      d="M84.657 52.703c-2.874.508-6.625.153-10.875-.268-6.711-.65-15.063-1.459-22.827.962-7.764 2.424-14.154 7.922-19.293 12.274-3.206 2.708-6.01 5.141-8.637 6.399 4.955 11.671 19.19 32.565 41.808 25.505 21.656-6.756 22.238-32.446 19.824-44.872zM59.336 91.674c-9.983 2.325-19.901-3.521-22.385-12.958-1.251-2.628-.507-5.86 1.922-7.645a6.188 6.188 0 0 1 8.642 1.328 6.11 6.11 0 0 1 1.194 3.976c2.112 7.389 8.694 12.447 16.25 13.081-1.696 1.007-3.589 1.746-5.623 2.218zM44.531 16.817A27.249 27.249 0 0 1 42.32 2.886l-8.881 3.8L23.893 1c-.792 7.795 1.831 15.235 6.699 20.887a55.998 55.998 0 0 1 9.329-3.833 55.873 55.873 0 0 1 4.61-1.237z"
    />
    <path
      d="M46.34 20.25c-1.723.364-3.5.823-5.302 1.378-2.754.868-5.324 1.885-7.702 3.048-16.184 7.86-23.323 22.191-18.371 38.057 2.271 7.232 4.422 6.642 5.57 6.275a7.72 7.72 0 0 0 1.17-.495c2.072-1.069 4.625-3.28 7.505-5.729 5.415-4.574 12.116-10.345 20.617-12.991 8.494-2.648 17.27-1.792 24.323-1.107 3.859.375 7.275.696 9.597.34a7.36 7.36 0 0 0 1.064-.232c1.144-.361 3.277-1.026 1.017-8.252-5.207-16.688-20.41-24.307-39.488-20.292z"
    />
    </g>
    </svg>
